<?xml version="1.0" encoding="UTF-8"?>
<svg id="Ebene_1" xmlns="http://www.w3.org/2000/svg" version="1.1" xmlns:xlink="http://www.w3.org/1999/xlink" viewBox="0 0 356.28 313.89">
  <!-- Generator: Adobe Illustrator 29.6.1, SVG Export Plug-In . SVG Version: 2.1.1 Build 9)  -->
  <defs>
    <style>
      .st0 {
        fill: #fff;
      }

      .st1 {
        fill: #8ca5d6;
      }

      .st2 {
        fill: #afca0b;
      }

      .st3 {
        fill: none;
      }

      .st4 {
        clip-path: url(#clippath-1);
      }

      .st5 {
        fill: #608c33;
      }

      .st6 {
        clip-path: url(#clippath);
      }
    </style>
    <clipPath id="clippath">
      <polyline class="st3" points="13 226.01 30.26 250 334.65 30.87 317.38 6.89 13 226.01"/>
    </clipPath>
    <clipPath id="clippath-1">
      <polyline class="st3" points="97.89 293.73 143.88 308.45 235.49 22.25 189.5 7.52 97.89 293.73"/>
    </clipPath>
  </defs>
  <polyline class="st0" points="97.89 293.73 143.88 308.45 235.49 22.25 189.5 7.52 97.89 293.73"/>
  <polyline class="st0" points="13 226.01 30.26 250 334.36 31.08 317.09 7.1 13 226.01"/>
  <polyline class="st1" points="334.36 31.08 317.09 7.1 317.38 6.89 334.65 30.87 334.36 31.08"/>
  <path class="st1" d="M30.26,250l-17.26-23.98,138.47-99.69-15.15,47.31-26.53,19.1-14.02-10.45-4.32,3.11,5.46,16.61-1.35.97-9.74-13.53-5.02,3.61,5.95,13.47-.38.27-10.82-9.96-5.02,3.61,9.74,13.53-2.88,2.07-9.74-13.53-5.02,3.61,5.95,13.47-.38.27-10.83-9.96-5.02,3.61,9.74,13.53-2.2,1.58-1.43-1.98-6.31,4.54-2.55-3.55,5.42-3.9-1.68-2.33-5.42,3.9-2.37-3.29,6.09-4.39-1.72-2.39-8.66,6.24,9.74,13.53-2.51,1.81-5.24-7.28-6.79,4.89,1.65,2.29,4.14-2.98c.98,2.2.07,4.76-2,6.25-1.02.73-2.16,1.1-3.29,1.1-1.72,0-3.43-.85-4.66-2.57-2.02-2.81-1.4-6.19,1.17-8.04,1.09-.79,2.23-1.14,3.32-1.14.92,0,1.8.25,2.57.71l1.38-2.87c-1.17-.64-2.48-1-3.84-1-1.69,0-3.48.55-5.22,1.81-4.2,3.03-4.98,8.37-2.04,12.45,1.83,2.55,4.53,3.88,7.22,3.88.46,0,.93-.04,1.39-.12l-7.99,5.75M43.95,240.15c.4-.92.48-1.88.24-2.85l.4-.29,1.27,1.76-1.91,1.37M64.6,225.27l-8.12-11.28.4-.29,10.45,9.61-2.72,1.96M72.16,219.84l-5.8-12.96.4-.29,8.12,11.28-2.72,1.96M82.78,212.19l-8.12-11.28.4-.29,10.45,9.61-2.72,1.96M90.33,206.75l-5.8-12.96.4-.29,8.12,11.28-2.72,1.96M99.63,200.06l-1-3.01,5.91-4.26,2.54,1.91-7.45,5.37M97.62,194.09l-2.61-7.83.42-.3,6.61,4.95-4.42,3.18M202.21,126.21l15.14-47.31L317.09,7.1l17.26,23.98-132.14,95.13"/>
  <g class="st6">
    <path class="st0" d="M36.86,244.37c-2.7,0-5.39-1.34-7.22-3.88-2.94-4.08-2.16-9.42,2.04-12.45,1.74-1.25,3.53-1.81,5.22-1.81,1.36,0,2.67.36,3.84,1l-1.38,2.87c-.77-.46-1.65-.71-2.57-.71-1.09,0-2.23.35-3.32,1.14-2.57,1.85-3.19,5.23-1.17,8.04,1.24,1.72,2.94,2.57,4.66,2.57,1.13,0,2.27-.37,3.29-1.1,2.07-1.49,2.98-4.05,2-6.25l-4.14,2.98-1.65-2.29,6.79-4.89,5.24,7.28-2.65,1.91-1.27-1.76-.4.29c.24.97.16,1.93-.24,2.85h0l-5.7,4.1h0c-.46.08-.93.12-1.39.12M51.01,235.06h0l-9.74-13.53,8.66-6.24,1.72,2.39-6.09,4.39,2.37,3.29,5.42-3.9,1.68,2.33-5.42,3.9,2.55,3.55,6.31-4.54,1.43,1.98-8.88,6.39M62.09,227.08h0l-9.74-13.53,5.02-3.61,10.83,9.96.38-.27-5.95-13.47,5.02-3.61,9.74,13.53-2.51,1.81-8.12-11.28-.4.29,5.8,12.96-4.83,3.48-10.45-9.61-.4.29,8.12,11.28-2.51,1.81M80.27,214h0l-9.74-13.53,5.02-3.61,10.82,9.96.38-.27-5.95-13.47,5.02-3.61,9.74,13.53-2.51,1.81-8.12-11.28-.4.29,5.8,12.96-4.83,3.47-10.45-9.61-.4.29,8.12,11.28-2.51,1.81M96.92,202.01h0l-5.46-16.61,4.32-3.11,14.02,10.45-2.71,1.95-2.54-1.91-5.91,4.26,1,3.01-2.71,1.95M95.42,185.96l-.42.3,2.61,7.83,4.42-3.18-6.61-4.95"/>
  </g>
  <path class="st2" d="M143.88,308.45l-45.99-14.72,38.44-120.09,65.89-47.43-14.69,45.9-.33-.11-33.48-.12-3.09,9.66,27.33,19.35.33.11-1.35,4.22-30.74-9.84-3.59,11.22,24.36,13.88-.27.85-27.85-2.98-3.59,11.22,30.74,9.84-2.38,7.43-30.76-9.85-1.78,5.56,30.76,9.85-1.43,4.48-4.96-1.59-3.34,10.43-25.77-8.25-1.85,5.79,30.74,9.84-1.06,3.3-.33-.11-21.35,4.75-8.46-13.75-.76-.24-2.07,6.46,9.71,15.67-.29.89-13.35-4.27-1.84,5.74,30.74,9.84-2.27,7.07M151.47,126.33L189.5,7.52l45.99,14.72-18.13,56.65-65.89,47.43"/>
  <path class="st2" d="M136.33,173.64h0l65.89-47.43h0l-65.89,47.43M151.47,126.33h0l65.89-47.43h0l-65.89,47.43"/>
  <polyline class="st5" points="136.33 173.64 151.47 126.33 217.36 78.9 202.21 126.21 136.33 173.64"/>
  <polyline class="st2" points="147.98 295.63 139.81 293.02 135.8 286.53 152.01 283.05 147.98 295.63"/>
  <polyline class="st2" points="167.78 233.79 142.07 225.56 142.35 224.67 169.76 227.6 167.78 233.79"/>
  <polyline class="st2" points="173.15 217.01 149.14 203.48 149.42 202.59 175.13 210.82 173.15 217.01"/>
  <path class="st2" d="M180.18,195.03l-5.39-3.79,4.23-13.22,6.59.05-5.43,16.96M169.89,187.86l-12.86-9.02.3-.93,15.73.08-3.16,9.88"/>
  <g class="st4">
    <polyline class="st0" points="146.14 301.37 115.41 291.53 117.24 285.79 130.6 290.07 130.88 289.18 121.18 273.51 123.24 267.05 124 267.29 132.46 281.04 153.8 276.29 154.14 276.4 152.01 283.05 135.8 286.53 139.81 293.02 147.98 295.63 146.14 301.37"/>
    <polyline class="st0" points="155.19 273.1 124.46 263.26 126.31 257.48 152.08 265.73 155.42 255.29 160.39 256.88 155.19 273.1"/>
    <polyline class="st0" points="165.98 239.4 135.24 229.56 138.83 218.34 166.69 221.32 166.96 220.48 142.6 206.59 146.19 195.37 176.93 205.21 175.13 210.82 149.42 202.59 149.14 203.48 173.15 217.01 169.76 227.6 142.35 224.67 142.07 225.56 167.78 233.79 165.98 239.4"/>
    <path class="st0" d="M178.28,201l-.33-.11-27.33-19.35,3.09-9.66,33.48.12.33.11-1.91,5.96-6.59-.05-4.23,13.22,5.39,3.79-1.91,5.96M157.33,177.9l-.3.93,12.86,9.02,3.16-9.88-15.73-.08"/>
    <polyline class="st0" points="161.82 252.4 131.06 242.55 132.84 236.99 163.6 246.83 161.82 252.4"/>
  </g>
</svg>